<?xml version="1.0" encoding="UTF-8"?>
<svg id="Laag_3" data-name="Laag 3" xmlns="http://www.w3.org/2000/svg" viewBox="0 0 500 500">
  <defs>
    <style>
      .cls-1 {
        fill: none;
        stroke: #a9caee;
        stroke-miterlimit: 10;
        stroke-width: 5px;
      }

      .cls-2 {
        fill: #a9caee;
      }
    </style>
  </defs>
  <g>
    <path class="cls-1" d="M243.37,201h-11.92l-21.08,23v-23h-31.3V116.58h117.86s-.06,64.92,0,78.57c.03,7.78-25.06,12.35-31.06-1.65-4.73-11.04,12.14-55-28-55"/>
    <circle class="cls-2" cx="193.37" cy="129" r="5"/>
    <circle class="cls-1" cx="241.87" cy="162.5" r="24"/>
  </g>
  <g>
    <path d="M70.73,209.07h41.02v8.02h-32.84v25.66h32.84v8.02h-32.84v40.19h-8.18v-81.88Z"/>
    <path d="M165,207.01c12.4,0,22.78,4.14,31.14,12.41,8.35,8.28,12.53,18.46,12.53,30.56s-4.17,22.15-12.51,30.5c-8.34,8.35-18.5,12.52-30.5,12.52s-22.39-4.16-30.75-12.47c-8.36-8.31-12.53-18.37-12.53-30.17,0-7.87,1.9-15.16,5.71-21.88,3.81-6.72,9-11.98,15.57-15.78,6.57-3.8,13.68-5.71,21.33-5.71Zm.36,7.96c-6.06,0-11.8,1.58-17.23,4.74s-9.66,7.41-12.71,12.76c-3.05,5.35-4.57,11.31-4.57,17.88,0,9.73,3.37,17.95,10.12,24.65,6.75,6.7,14.88,10.05,24.39,10.05,6.36,0,12.24-1.54,17.65-4.62,5.41-3.08,9.63-7.3,12.66-12.65,3.03-5.35,4.54-11.29,4.54-17.83s-1.52-12.38-4.54-17.63c-3.03-5.26-7.29-9.46-12.79-12.62s-11.34-4.74-17.51-4.74Z"/>
    <path d="M301.35,224.26l-6.46,4.95c-3.56-4.64-7.84-8.15-12.83-10.55s-10.47-3.59-16.45-3.59c-6.53,0-12.58,1.57-18.15,4.7-5.57,3.14-9.88,7.35-12.94,12.64s-4.59,11.24-4.59,17.84c0,9.98,3.42,18.31,10.27,24.99s15.48,10.02,25.91,10.02c11.47,0,21.06-4.49,28.78-13.47l6.46,4.9c-4.08,5.2-9.18,9.21-15.28,12.05-6.1,2.84-12.92,4.26-20.46,4.26-14.33,0-25.62-4.77-33.9-14.31-6.94-8.05-10.41-17.77-10.41-29.17,0-11.99,4.2-22.07,12.61-30.25s18.93-12.27,31.59-12.27c7.64,0,14.55,1.51,20.71,4.54,6.16,3.02,11.21,7.26,15.14,12.72Z"/>
    <path d="M318.05,209.07h8.18v49.43c0,5.86,.11,9.52,.33,10.97,.41,3.23,1.35,5.93,2.84,8.1,1.48,2.17,3.77,3.99,6.85,5.46,3.08,1.47,6.18,2.2,9.3,2.2,2.71,0,5.31-.57,7.79-1.73,2.49-1.15,4.56-2.75,6.23-4.79,1.67-2.04,2.89-4.51,3.67-7.4,.56-2.08,.83-6.35,.83-12.8v-49.43h8.18v49.43c0,7.31-.71,13.22-2.14,17.73s-4.29,8.43-8.57,11.77-9.47,5.01-15.56,5.01c-6.61,0-12.27-1.58-16.98-4.73-4.71-3.15-7.87-7.33-9.46-12.52-1-3.19-1.5-8.94-1.5-17.26v-49.43Z"/>
    <path d="M383.96,275.7l6.96-4.17c4.9,9.02,10.56,13.53,16.98,13.53,2.75,0,5.32-.64,7.74-1.92,2.41-1.28,4.25-3,5.51-5.15,1.26-2.15,1.89-4.43,1.89-6.85,0-2.75-.93-5.44-2.78-8.07-2.56-3.64-7.24-8.02-14.03-13.14-6.83-5.16-11.08-8.89-12.75-11.19-2.89-3.86-4.34-8.03-4.34-12.52,0-3.56,.85-6.81,2.56-9.74,1.71-2.93,4.11-5.24,7.21-6.93,3.1-1.69,6.46-2.53,10.1-2.53,3.86,0,7.47,.96,10.83,2.87,3.36,1.91,6.91,5.43,10.66,10.55l-6.68,5.07c-3.08-4.08-5.71-6.77-7.88-8.07-2.17-1.3-4.54-1.95-7.1-1.95-3.3,0-6,1-8.1,3.01-2.1,2-3.14,4.47-3.14,7.4,0,1.78,.37,3.51,1.11,5.18,.74,1.67,2.1,3.49,4.06,5.46,1.08,1.04,4.6,3.77,10.58,8.18,7.09,5.23,11.95,9.89,14.58,13.97,2.63,4.08,3.95,8.18,3.95,12.3,0,5.94-2.25,11.1-6.76,15.47-4.51,4.38-9.99,6.57-16.45,6.57-4.97,0-9.48-1.33-13.53-3.98-4.04-2.65-7.78-7.1-11.19-13.33Z"/>
  </g>
</svg>